<svg xmlns="http://www.w3.org/2000/svg" xmlns:xlink="http://www.w3.org/1999/xlink" viewBox="0 0 1366 951.28"><defs><style>.cls-1,.cls-63,.cls-64,.cls-68,.cls-70{fill:none;}.cls-2{isolation:isolate;}.cls-3{clip-path:url(#clip-path);}.cls-4{fill:url(#linear-gradient);}.cls-5{fill:url(#radial-gradient);}.cls-6{fill:url(#linear-gradient-2);}.cls-7{fill:url(#linear-gradient-3);}.cls-73,.cls-8{mix-blend-mode:screen;}.cls-8{fill:url(#linear-gradient-4);}.cls-57,.cls-9{fill:#141b30;}.cls-10{fill:url(#linear-gradient-5);}.cls-11{fill:url(#linear-gradient-6);}.cls-12,.cls-59{fill:#567afc;}.cls-13{fill:url(#linear-gradient-7);}.cls-14{fill:url(#linear-gradient-8);}.cls-15{fill:url(#linear-gradient-9);}.cls-16{fill:url(#radial-gradient-2);}.cls-17{fill:url(#linear-gradient-10);}.cls-18{fill:url(#linear-gradient-11);}.cls-19,.cls-26{fill:#20294a;}.cls-20{fill:url(#linear-gradient-12);}.cls-21{fill:url(#linear-gradient-13);}.cls-22{fill:url(#linear-gradient-14);}.cls-23{fill:url(#linear-gradient-15);}.cls-24{fill:url(#linear-gradient-16);}.cls-25{fill:url(#radial-gradient-3);}.cls-26{opacity:0.5;}.cls-27,.cls-55,.cls-61{fill:#fc6f92;}.cls-28{fill:url(#radial-gradient-4);}.cls-29{fill:url(#linear-gradient-17);}.cls-30{fill:url(#linear-gradient-18);}.cls-31{fill:url(#linear-gradient-19);}.cls-32{fill:url(#linear-gradient-20);}.cls-33{fill:url(#linear-gradient-21);}.cls-34{fill:url(#radial-gradient-5);}.cls-35,.cls-52{fill:#fff;}.cls-36{fill:url(#linear-gradient-22);}.cls-37{fill:url(#linear-gradient-23);}.cls-38{fill:url(#linear-gradient-24);}.cls-39{fill:url(#radial-gradient-7);}.cls-40{fill:url(#linear-gradient-25);}.cls-41{fill:url(#linear-gradient-26);}.cls-42{fill:url(#linear-gradient-27);}.cls-43{fill:url(#linear-gradient-28);}.cls-44{fill:url(#linear-gradient-29);}.cls-45{fill:url(#linear-gradient-30);}.cls-46{fill:url(#linear-gradient-31);}.cls-47{fill:url(#linear-gradient-32);}.cls-48{fill:url(#radial-gradient-8);}.cls-49{fill:url(#radial-gradient-9);}.cls-50{fill:url(#linear-gradient-33);}.cls-51{fill:url(#linear-gradient-34);}.cls-52{opacity:0.2;mix-blend-mode:overlay;}.cls-53{fill:#e6e4eb;}.cls-54,.cls-62{fill:#49fcc9;}.cls-54,.cls-55,.cls-56,.cls-57,.cls-58,.cls-59,.cls-60,.cls-65,.cls-66,.cls-67{fill-rule:evenodd;}.cls-56{fill:#bf3d63;}.cls-58{fill:url(#linear-gradient-35);}.cls-60{fill:#cbd2d7;}.cls-61{stroke:#fcca3d;}.cls-61,.cls-63,.cls-70{stroke-miterlimit:10;}.cls-63,.cls-68{stroke:#283359;}.cls-63,.cls-70{stroke-width:2px;}.cls-64{stroke:#141b30;}.cls-64,.cls-68{stroke-linecap:round;stroke-linejoin:round;stroke-width:1.65px;}.cls-65{fill:url(#linear-gradient-36);}.cls-66{fill:url(#linear-gradient-37);}.cls-67{fill:url(#linear-gradient-38);}.cls-69{fill:#fcca3d;}.cls-70{stroke:#f2f2f2;}.cls-71{fill:url(#linear-gradient-39);}.cls-72{fill:url(#linear-gradient-40);}.cls-73{fill:url(#linear-gradient-41);}</style><clipPath id="clip-path"><rect class="cls-1" width="1366" height="951.28"/></clipPath><linearGradient id="linear-gradient" x1="541.99" y1="48.78" x2="1384.42" y2="775.75" gradientUnits="userSpaceOnUse"><stop offset="0.15" stop-color="#fc6f92" stop-opacity="0.5"/><stop offset="0.48" stop-color="#a675c9" stop-opacity="0.34"/><stop offset="0.82" stop-color="#567afc" stop-opacity="0.2"/></linearGradient><radialGradient id="radial-gradient" cx="618.22" cy="131.04" r="1526.68" gradientUnits="userSpaceOnUse"><stop offset="0.11" stop-color="#567afc"/><stop offset="0.23" stop-color="#4663cb"/><stop offset="0.4" stop-color="#314589"/><stop offset="0.55" stop-color="#212e59"/><stop offset="0.66" stop-color="#18203b"/><stop offset="0.73" stop-color="#141b30"/></radialGradient><linearGradient id="linear-gradient-2" x1="1235.62" y1="22.81" x2="1235.62" y2="872.51" gradientUnits="userSpaceOnUse"><stop offset="0.01" stop-color="#fbc93d" stop-opacity="0.7"/><stop offset="0.04" stop-color="#fbc93d" stop-opacity="0.62"/><stop offset="0.12" stop-color="#fbc93d" stop-opacity="0.45"/><stop offset="0.2" stop-color="#fcca3d" stop-opacity="0.31"/><stop offset="0.29" stop-color="#fcca3d" stop-opacity="0.2"/><stop offset="0.38" stop-color="#fcca3d" stop-opacity="0.11"/><stop offset="0.48" stop-color="#fcca3d" stop-opacity="0.05"/><stop offset="0.59" stop-color="#fcca3d" stop-opacity="0.01"/><stop offset="0.76" stop-color="#fcca3d" stop-opacity="0"/></linearGradient><linearGradient id="linear-gradient-3" x1="981.01" y1="17.99" x2="981.01" y2="841.85" gradientUnits="userSpaceOnUse"><stop offset="0" stop-color="#fc6f92" stop-opacity="0.5"/><stop offset="0.07" stop-color="#e471a1" stop-opacity="0.46"/><stop offset="0.24" stop-color="#b174c2" stop-opacity="0.36"/><stop offset="0.42" stop-color="#8977db" stop-opacity="0.29"/><stop offset="0.6" stop-color="#6d79ee" stop-opacity="0.24"/><stop offset="0.79" stop-color="#5c7af8" stop-opacity="0.21"/><stop offset="0.99" stop-color="#567afc" stop-opacity="0.2"/></linearGradient><linearGradient id="linear-gradient-4" x1="749.72" y1="842.98" x2="749.72" y2="33.02" gradientUnits="userSpaceOnUse"><stop offset="0.38" stop-color="#141b30" stop-opacity="0"/><stop offset="0.46" stop-color="#192f3d" stop-opacity="0.04"/><stop offset="0.61" stop-color="#256361" stop-opacity="0.16"/><stop offset="0.8" stop-color="#39b89a" stop-opacity="0.35"/><stop offset="0.94" stop-color="#49fcc9" stop-opacity="0.5"/></linearGradient><linearGradient id="linear-gradient-5" x1="923.17" y1="675.44" x2="1273.13" y2="832.38" gradientUnits="userSpaceOnUse"><stop offset="0" stop-color="#567afc"/><stop offset="0.02" stop-color="#5578f7"/><stop offset="0.28" stop-color="#425cba"/><stop offset="0.51" stop-color="#33468a"/><stop offset="0.72" stop-color="#293667"/><stop offset="0.89" stop-color="#222d52"/><stop offset="1" stop-color="#20294a"/></linearGradient><linearGradient id="linear-gradient-6" x1="527.8" y1="-27.82" x2="1951.69" y2="749.07" gradientUnits="userSpaceOnUse"><stop offset="0.15" stop-color="#567afc"/><stop offset="0.18" stop-color="#5173ec"/><stop offset="0.29" stop-color="#3f58b4"/><stop offset="0.41" stop-color="#2f4285"/><stop offset="0.51" stop-color="#233160"/><stop offset="0.61" stop-color="#1b2546"/><stop offset="0.69" stop-color="#161e36"/><stop offset="0.76" stop-color="#141b30"/></linearGradient><linearGradient id="linear-gradient-7" x1="1033.7" y1="67.64" x2="1601.34" y2="806.04" gradientUnits="userSpaceOnUse"><stop offset="0.14" stop-color="#fc6f92" stop-opacity="0.5"/><stop offset="0.32" stop-color="#a675c9" stop-opacity="0.34"/><stop offset="0.5" stop-color="#567afc" stop-opacity="0.2"/><stop offset="0.52" stop-color="#4e6ee2" stop-opacity="0.19"/><stop offset="0.61" stop-color="#2e4080" stop-opacity="0.14"/><stop offset="0.69" stop-color="#1b2444" stop-opacity="0.11"/><stop offset="0.77" stop-color="#141b30" stop-opacity="0.1"/></linearGradient><linearGradient id="linear-gradient-8" x1="1052.43" y1="53.24" x2="1620.06" y2="791.65" xlink:href="#linear-gradient-7"/><linearGradient id="linear-gradient-9" x1="1037.05" y1="65.07" x2="1604.68" y2="803.47" xlink:href="#linear-gradient-7"/><radialGradient id="radial-gradient-2" cx="1095.66" cy="324.68" r="198.02" gradientUnits="userSpaceOnUse"><stop offset="0.2" stop-color="#fcca3d"/><stop offset="0.33" stop-color="#f9c83d"/><stop offset="0.44" stop-color="#eec03e"/><stop offset="0.55" stop-color="#ddb33f"/><stop offset="0.64" stop-color="#c5a140"/><stop offset="0.74" stop-color="#a58a42"/><stop offset="0.83" stop-color="#7e6e44"/><stop offset="0.92" stop-color="#524d47"/><stop offset="1" stop-color="#20294a"/></radialGradient><linearGradient id="linear-gradient-10" x1="1120.63" y1="285.88" x2="1147.88" y2="304.22" gradientUnits="userSpaceOnUse"><stop offset="0.41" stop-color="#fcca3d"/><stop offset="0.46" stop-color="#f5c53d"/><stop offset="0.55" stop-color="#e0b53f"/><stop offset="0.65" stop-color="#be9d41"/><stop offset="0.77" stop-color="#8f7a43"/><stop offset="0.9" stop-color="#534e47"/><stop offset="1" stop-color="#20294a"/></linearGradient><linearGradient id="linear-gradient-11" x1="1176.58" y1="443.43" x2="1176.43" y2="360.75" gradientUnits="userSpaceOnUse"><stop offset="0.21" stop-color="#fcca3d" stop-opacity="0"/><stop offset="0.24" stop-color="#d0a940" stop-opacity="0.2"/><stop offset="0.31" stop-color="#8f7a43" stop-opacity="0.5"/><stop offset="0.39" stop-color="#5d5646" stop-opacity="0.72"/><stop offset="0.49" stop-color="#3a3c48" stop-opacity="0.88"/><stop offset="0.62" stop-color="#262d4a" stop-opacity="0.97"/><stop offset="1" stop-color="#20294a"/></linearGradient><linearGradient id="linear-gradient-12" x1="1087.6" y1="351.76" x2="1189.42" y2="374.21" gradientUnits="userSpaceOnUse"><stop offset="0.04" stop-color="#141b30" stop-opacity="0"/><stop offset="0.27" stop-color="#141b30" stop-opacity="0.13"/><stop offset="0.6" stop-color="#141b30" stop-opacity="0.5"/><stop offset="0.92" stop-color="#141b30"/></linearGradient><linearGradient id="linear-gradient-13" x1="1106.91" y1="318.24" x2="1133.67" y2="335.07" gradientUnits="userSpaceOnUse"><stop offset="0" stop-color="#fcca3d"/><stop offset="0.1" stop-color="#f5c53d"/><stop offset="0.24" stop-color="#e0b53f"/><stop offset="0.42" stop-color="#be9d41"/><stop offset="0.62" stop-color="#8f7a43"/><stop offset="0.83" stop-color="#534e47"/><stop offset="1" stop-color="#20294a"/></linearGradient><linearGradient id="linear-gradient-14" x1="1236.06" y1="346.42" x2="1221.93" y2="326.18" gradientUnits="userSpaceOnUse"><stop offset="0.07" stop-color="#fcca3d"/><stop offset="0.25" stop-color="#cba640"/><stop offset="0.62" stop-color="#706345"/><stop offset="0.88" stop-color="#363949"/><stop offset="1" stop-color="#20294a"/></linearGradient><linearGradient id="linear-gradient-15" x1="1167.04" y1="328.05" x2="1197.91" y2="398" gradientUnits="userSpaceOnUse"><stop offset="0" stop-color="#94b0ff"/><stop offset="0.66" stop-color="#688afd"/><stop offset="1" stop-color="#567afc"/></linearGradient><linearGradient id="linear-gradient-16" x1="1205.21" y1="323.45" x2="1225.51" y2="354.42" gradientUnits="userSpaceOnUse"><stop offset="0" stop-color="#567afc"/><stop offset="0.06" stop-color="#4d6ee2"/><stop offset="0.18" stop-color="#3e58b3"/><stop offset="0.31" stop-color="#31458b"/><stop offset="0.43" stop-color="#27366a"/><stop offset="0.56" stop-color="#1e2a50"/><stop offset="0.7" stop-color="#19223e"/><stop offset="0.84" stop-color="#151d33"/><stop offset="1" stop-color="#141b30"/></linearGradient><radialGradient id="radial-gradient-3" cx="1209.79" cy="332.26" r="38.83" xlink:href="#linear-gradient-15"/><radialGradient id="radial-gradient-4" cx="1135.5" cy="368.88" r="20.31" gradientUnits="userSpaceOnUse"><stop offset="0.01" stop-color="#fc6f92" stop-opacity="0"/><stop offset="0.25" stop-color="#dc6385" stop-opacity="0.14"/><stop offset="0.59" stop-color="#84435f" stop-opacity="0.52"/><stop offset="0.9" stop-color="#141b30"/></radialGradient><linearGradient id="linear-gradient-17" x1="1105.28" y1="275.62" x2="1155.31" y2="275.62" xlink:href="#linear-gradient-12"/><linearGradient id="linear-gradient-18" x1="1146.16" y1="380.36" x2="1080.92" y2="345.19" gradientUnits="userSpaceOnUse"><stop offset="0.41" stop-color="#fc6f92" stop-opacity="0"/><stop offset="0.46" stop-color="#fc6f92" stop-opacity="0.03"/><stop offset="0.53" stop-color="#fc6f92" stop-opacity="0.12"/><stop offset="0.62" stop-color="#fc6f92" stop-opacity="0.26"/><stop offset="0.72" stop-color="#fc6f92" stop-opacity="0.46"/><stop offset="0.83" stop-color="#fb6f91" stop-opacity="0.71"/><stop offset="0.95" stop-color="#fb6f91"/></linearGradient><linearGradient id="linear-gradient-19" x1="1244.66" y1="299.2" x2="1097.34" y2="204.2" xlink:href="#linear-gradient-18"/><linearGradient id="linear-gradient-20" x1="1127.35" y1="470.26" x2="1209.97" y2="474.22" gradientUnits="userSpaceOnUse"><stop offset="0.25" stop-color="#141b30" stop-opacity="0.2"/><stop offset="0.51" stop-color="#141b30" stop-opacity="0.27"/><stop offset="0.73" stop-color="#141b30" stop-opacity="0.49"/><stop offset="0.94" stop-color="#141b30" stop-opacity="0.86"/><stop offset="1" stop-color="#141b30"/></linearGradient><linearGradient id="linear-gradient-21" x1="1243.65" y1="565.34" x2="1007.94" y2="631.89" xlink:href="#linear-gradient-20"/><radialGradient id="radial-gradient-5" cx="1016.29" cy="432.92" r="455.01" gradientUnits="userSpaceOnUse"><stop offset="0" stop-color="#567afc"/><stop offset="0.17" stop-color="#5578f8"/><stop offset="0.32" stop-color="#5273ed"/><stop offset="0.46" stop-color="#4c6bdb"/><stop offset="0.6" stop-color="#445fc1"/><stop offset="0.74" stop-color="#3a509f"/><stop offset="0.88" stop-color="#2e3d77"/><stop offset="1" stop-color="#20294a"/></radialGradient><linearGradient id="linear-gradient-22" x1="1108.09" y1="414.42" x2="1146.88" y2="447.04" gradientUnits="userSpaceOnUse"><stop offset="0.04" stop-color="#141b30" stop-opacity="0"/><stop offset="0.3" stop-color="#141b30" stop-opacity="0.13"/><stop offset="0.65" stop-color="#141b30" stop-opacity="0.5"/><stop offset="1" stop-color="#141b30"/></linearGradient><linearGradient id="linear-gradient-23" x1="954.32" y1="515.44" x2="1057.75" y2="767.39" gradientUnits="userSpaceOnUse"><stop offset="0.07" stop-color="#141b30" stop-opacity="0"/><stop offset="0.36" stop-color="#141b30" stop-opacity="0.07"/><stop offset="0.61" stop-color="#141b30" stop-opacity="0.3"/><stop offset="0.85" stop-color="#141b30" stop-opacity="0.68"/><stop offset="1" stop-color="#141b30"/></linearGradient><linearGradient id="linear-gradient-24" x1="1003.63" y1="620.72" x2="1127.8" y2="742.78" gradientUnits="userSpaceOnUse"><stop offset="0.2" stop-color="#fcca3d"/><stop offset="0.3" stop-color="#f7c73d"/><stop offset="0.41" stop-color="#eabd3e"/><stop offset="0.52" stop-color="#d4ad3f"/><stop offset="0.63" stop-color="#b59641"/><stop offset="0.75" stop-color="#8d7944"/><stop offset="0.87" stop-color="#5c5546"/><stop offset="0.99" stop-color="#232b4a"/><stop offset="1" stop-color="#20294a"/></linearGradient><radialGradient id="radial-gradient-7" cx="1146.17" cy="594.07" r="169.9" gradientUnits="userSpaceOnUse"><stop offset="0.43" stop-color="#141b30" stop-opacity="0"/><stop offset="0.58" stop-color="#141b30" stop-opacity="0.13"/><stop offset="0.79" stop-color="#141b30" stop-opacity="0.5"/><stop offset="1" stop-color="#141b30"/></radialGradient><linearGradient id="linear-gradient-25" x1="1216" y1="488.53" x2="1085.71" y2="703.4" gradientUnits="userSpaceOnUse"><stop offset="0.03" stop-color="#141b30" stop-opacity="0"/><stop offset="0.29" stop-color="#141b30" stop-opacity="0.13"/><stop offset="0.65" stop-color="#141b30" stop-opacity="0.5"/><stop offset="1" stop-color="#141b30"/></linearGradient><linearGradient id="linear-gradient-26" x1="1140.56" y1="661.71" x2="1287.27" y2="405.56" gradientUnits="userSpaceOnUse"><stop offset="0.14" stop-color="#fc6f92" stop-opacity="0"/><stop offset="0.22" stop-color="#fc6f92" stop-opacity="0.03"/><stop offset="0.33" stop-color="#fc6f92" stop-opacity="0.12"/><stop offset="0.47" stop-color="#fc6f92" stop-opacity="0.26"/><stop offset="0.64" stop-color="#fc6f92" stop-opacity="0.46"/><stop offset="0.82" stop-color="#fb6f91" stop-opacity="0.71"/><stop offset="1" stop-color="#fb6f91"/></linearGradient><linearGradient id="linear-gradient-27" x1="1101.09" y1="626.89" x2="1074.33" y2="392.08" xlink:href="#linear-gradient-26"/><linearGradient id="linear-gradient-28" x1="1086.68" y1="520.38" x2="1094.1" y2="670.31" xlink:href="#linear-gradient-25"/><linearGradient id="linear-gradient-29" x1="1029.23" y1="663.58" x2="1062.1" y2="696.62" gradientUnits="userSpaceOnUse"><stop offset="0.21" stop-color="#fcca3d"/><stop offset="0.29" stop-color="#f5c53d"/><stop offset="0.4" stop-color="#e0b53f"/><stop offset="0.54" stop-color="#be9d41"/><stop offset="0.7" stop-color="#8f7a43"/><stop offset="0.87" stop-color="#534e47"/><stop offset="1" stop-color="#20294a"/></linearGradient><linearGradient id="linear-gradient-30" x1="1220.98" y1="402.27" x2="1225.19" y2="416.95" xlink:href="#linear-gradient-22"/><linearGradient id="linear-gradient-31" x1="819.1" y1="586.53" x2="1147.41" y2="884.77" gradientUnits="userSpaceOnUse"><stop offset="0" stop-color="#fc6f92"/><stop offset="0.02" stop-color="#f16b8d"/><stop offset="0.15" stop-color="#b75675"/><stop offset="0.27" stop-color="#854460"/><stop offset="0.4" stop-color="#5c354f"/><stop offset="0.51" stop-color="#3d2a41"/><stop offset="0.63" stop-color="#262238"/><stop offset="0.74" stop-color="#191d32"/><stop offset="0.84" stop-color="#141b30"/></linearGradient><linearGradient id="linear-gradient-32" x1="841.32" y1="562.07" x2="1169.63" y2="860.32" xlink:href="#linear-gradient-31"/><radialGradient id="radial-gradient-8" cx="4144.77" cy="543.53" r="342.5" gradientTransform="translate(-1306.61) scale(0.52 1)" xlink:href="#linear-gradient-15"/><radialGradient id="radial-gradient-9" cx="831.99" cy="543.53" r="340.15" xlink:href="#linear-gradient-15"/><linearGradient id="linear-gradient-33" x1="846.19" y1="726.08" x2="1020.57" y2="749.33" gradientUnits="userSpaceOnUse"><stop offset="0.15" stop-color="#fc6f92" stop-opacity="0.5"/><stop offset="0.44" stop-color="#a675c9" stop-opacity="0.34"/><stop offset="0.74" stop-color="#567afc" stop-opacity="0.2"/></linearGradient><linearGradient id="linear-gradient-34" x1="880.48" y1="616.95" x2="1033.21" y2="786.12" gradientUnits="userSpaceOnUse"><stop offset="0.16" stop-color="#141b30" stop-opacity="0"/><stop offset="0.5" stop-color="#141b30" stop-opacity="0.09"/><stop offset="0.87" stop-color="#141b30" stop-opacity="0.36"/><stop offset="1" stop-color="#141b30" stop-opacity="0.5"/></linearGradient><linearGradient id="linear-gradient-35" x1="1430.09" y1="648.33" x2="1274.95" y2="749.35" gradientUnits="userSpaceOnUse"><stop offset="0.11" stop-color="#567afc"/><stop offset="0.26" stop-color="#4663cb"/><stop offset="0.48" stop-color="#314589"/><stop offset="0.67" stop-color="#212e59"/><stop offset="0.81" stop-color="#18203b"/><stop offset="0.89" stop-color="#141b30"/></linearGradient><linearGradient id="linear-gradient-36" x1="963.95" y1="272.53" x2="975.13" y2="272.53" gradientUnits="userSpaceOnUse"><stop offset="0.23" stop-color="#f2f2f2"/><stop offset="0.67" stop-color="#eee"/><stop offset="1" stop-color="#e6e6e6"/></linearGradient><linearGradient id="linear-gradient-37" x1="986.6" y1="272.53" x2="997.79" y2="272.53" xlink:href="#linear-gradient-36"/><linearGradient id="linear-gradient-38" x1="1009.26" y1="272.53" x2="1020.44" y2="272.53" xlink:href="#linear-gradient-36"/><linearGradient id="linear-gradient-39" x1="884.31" y1="265.79" x2="884.31" y2="1226.9" gradientUnits="userSpaceOnUse"><stop offset="0.11" stop-color="#567afc"/><stop offset="0.4" stop-color="#374e9d"/><stop offset="0.73" stop-color="#141b30"/></linearGradient><linearGradient id="linear-gradient-40" x1="801.81" y1="395.67" x2="801.81" y2="1101.94" gradientUnits="userSpaceOnUse"><stop offset="0" stop-color="#fc6f92" stop-opacity="0.5"/><stop offset="0.16" stop-color="#dd6485" stop-opacity="0.45"/><stop offset="0.48" stop-color="#8a4662" stop-opacity="0.3"/><stop offset="0.87" stop-color="#141b30" stop-opacity="0.1"/></linearGradient><linearGradient id="linear-gradient-41" x1="333.51" y1="1141.29" x2="333.51" y2="462.59" gradientUnits="userSpaceOnUse"><stop offset="0.38" stop-color="#141b30" stop-opacity="0"/><stop offset="0.65" stop-color="#2e8b7c" stop-opacity="0.25"/><stop offset="0.88" stop-color="#42ddb4" stop-opacity="0.43"/><stop offset="1" stop-color="#49fcc9" stop-opacity="0.5"/></linearGradient></defs><g class="cls-2"><g id="Layer_1" data-name="Layer 1"><g class="cls-3"><path class="cls-4" d="M1142.72,139.93c112.74,57.32,385.38,276,296.08,515S992.34,879.2,805.63,724.68,530.53,327.53,659.51,184.12,1050.48,93,1142.72,139.93Z"/><path class="cls-5" d="M1172.69,132.24c112.74,57.33,385.37,276,296.08,515S1022.3,871.52,835.6,717,560.5,319.85,689.48,176.44,1080.45,85.34,1172.69,132.24Z"/><path class="cls-6" d="M1172.69,132.24c-23.29-11.84-57.41-24-97.48-33.32v724c118.18,20.07,240.13.73,320.82-69.72V321C1325,229.61,1228.94,160.84,1172.69,132.24Z"/><path class="cls-7" d="M799.93,104.66V685.28Q817.09,701.66,835.6,717c86.7,71.76,210.17,113.37,326.5,113.42V127.18C1086.53,93,927.12,59.81,799.93,104.66Z"/><path class="cls-8" d="M689.48,176.44c-129,143.41-40.59,386,146.12,540.56a432.72,432.72,0,0,0,35.32,26.25V87.59C802.48,97.37,737,123.64,689.48,176.44Z"/><g id="table"><path class="cls-9" d="M829.88,749.18v26.46h536.57a269.33,269.33,0,0,0,34.11-26.46Z"/><path class="cls-10" d="M1366.45,775.64h-439C1067.7,844.15,1248.36,853.08,1366.45,775.64Z"/></g><g id="window"><path class="cls-11" d="M1185.74,139.21v383.9h299.32C1467.42,344.28,1283.08,193.46,1185.74,139.21Z"/><path class="cls-12" d="M1342.91,318.69V260.83c-.51-.51-1-1-1.54-1.54v59.4H1203.26v1.54h138.11V506.16h1.54V320.23h52.49l-1.2-1.54Z"/><path class="cls-13" d="M1203.26,149.46v356.7h279.63C1457.41,344.93,1300.26,208.75,1203.26,149.46Z"/><path class="cls-14" d="M1404.25,331.86,1263,506.16H1438.4l21-79.86C1445.13,393,1426.07,361.33,1404.25,331.86Z"/><path class="cls-15" d="M1294.81,216.33l-91.55,59.77V491.8L1385.61,308C1357.36,273.62,1325.85,242.72,1294.81,216.33Z"/></g><g id="man"><g id="head"><path class="cls-16" d="M1164,254.13s-33.55,32.3-34.15,37.56.83,17.06.83,17.06-12.56,9.4-13.61,12.25.9,12.63.9,12.63,24.89,37.24,50.93,37.11l-29.76,22.09s8.42,48.71,7.42,53.92-1.2,28.66,13.43,27.86,72.36-32.27,72.36-32.27-13.63-36.88-14.24-47.1c-.4-6.83,9-28.77,15.35-42.59,10.44-1.81,18.19-4.77,20.63-14.14C1259.82,316.57,1224.54,246.72,1164,254.13Z"/><path class="cls-17" d="M1139.4,300.93c.89-2.39-1.15-15.54-1.84-19.75-4.34,4.88-7.52,8.92-7.7,10.51-.6,5.26.83,17.06.83,17.06S1138.35,303.79,1139.4,300.93Z"/><path class="cls-18" d="M1210.78,358.85s-12.5,48.41-20.92,54.23-47.68-2-47.68-2Z"/><path class="cls-19" d="M1155.31,262.67s20.52-.72,29.54,1.68l-13,1.71s8.94,8.49,38,9.84c0,0-8.94,9.1-7.14,21.12s2.81,21.25,2.81,21.25-15.24,26.06-18.64,29.16-31.55,7-31.55,7-18.46-16.44-23.17-18-14.16-2.78-14.16-2.78-9.79,7.49-10.7,8.79-.1,16.74-1.6,18.64-10.42,11.63-10.42,11.63l2.7,3.51s-3.3,5.11-2.7,6,2.5,2.5,2.1,4.91-1.6,3.21-1,2.81,22.75,21.74,48.41,21.14,46.7-6.21,49.7-9.22S1206.9,369,1206.9,369l6.53-13.37s-5.63-13.39-3.22-20.7,10-14.23,10-14.23,10.92-2.41,16.23,1.1,7.92,11.12-2,22.35-24,32.07-23.85,39,7.51,12.13,7.51,12.13l13.63-16.94.81,3.31s12.22-17,24-24.25,14.83-21.85,12.63-27.06-6.42-20.65-6.42-20.65l8.49-1.2-6.83-6s7.21-15,1.2-36.38l-2.71,7.21a50.74,50.74,0,0,0-24.5-30.06c-19.69-10.37-31.27-10.52-31.27-10.52l1.2,3.15s-25.25-7.82-42.84-9.62-20.74-6.16-20.74-6.16-2,10.67.3,12.78c0,0-16.84-4.82-30.82,10.52l6,4.81-3.54.75a16.72,16.72,0,0,0,7.75,9l-19.24,3.61s13.53,7.06,14.28,11.42c0,0-6.61-2.7-8.42-4.51,0,0,.88,13.91,19.61,21.24C1130.75,289.7,1153.05,264.94,1155.31,262.67Z"/><path class="cls-20" d="M1197.18,357.15c-3.61,19.75-66.82,20.3-67.54,20.65s3.3,7.92,7,9.92-9.62,5.81-16.64,3.11-23.65-.9-23.65-.9c.6-.4,22.75,21.74,48.41,21.14s46.7-6.21,49.7-9.22S1206.9,369,1206.9,369l6.53-13.37s-5.63-13.39-3.22-20.7a21.14,21.14,0,0,1,1.7-3.81S1200.78,337.43,1197.18,357.15Z"/><path class="cls-21" d="M1136.55,334.46c-.08-.61-9.47-11.88-12.1-13.61s-5.79-2-7.37.15c-1,2.86.9,12.63.9,12.63S1136.62,335.06,1136.55,334.46Z"/><path class="cls-22" d="M1219.78,334.86s4.11-7.87,9.07-7.42,7.06,7,7.06,7-8.82-4.66-11.92.9S1219.78,334.86,1219.78,334.86Z"/><path class="cls-23" d="M1155.75,377.3c-3.74,0-6.18-.06-6.52-.07l.09-3.07c.29,0,29.37.75,46.52-3.17,16.7-3.82,19.06-16.51,19.06-16.63a1.4,1.4,0,0,0,.3.84l2.44-1.88c.29.37.72.94-.32,3.84-1.1,3.08-5.87,13.41-20.8,16.83C1183.86,376.88,1165.45,377.3,1155.75,377.3Z"/><ellipse class="cls-24" cx="1219.64" cy="345.47" rx="16.39" ry="15.91"/><ellipse class="cls-25" cx="1222.72" cy="347.01" rx="16.39" ry="15.91"/><ellipse class="cls-26" cx="1222.72" cy="347.01" rx="7.47" ry="7.25"/><rect class="cls-27" x="1128.33" y="369.78" width="21.85" height="11.22" rx="5.27"/><path class="cls-28" d="M1133.64,381h11.23a5.31,5.31,0,0,0,5.31-5.31v-.61a5.28,5.28,0,0,0-1.44-3.62c-2,2.81-7.47,8.1-19.1,7.71A5.31,5.31,0,0,0,1133.64,381Z"/><path class="cls-29" d="M1105.28,261.55s13.53,7.06,14.28,11.42c0,0-6.61-2.7-8.42-4.51,0,0,.88,13.91,19.61,21.24,0,0,22.3-24.76,24.56-27C1155.31,262.67,1127,268.76,1105.28,261.55Z"/><path class="cls-30" d="M1106,380.15l14-4.76s-8.42-.95-7.81-1.4,7.51-10.07,4.57-11.07-4.42-17-5.48-18.39c-.83-1.08,15.61-5.57,22.39-7.37a9.16,9.16,0,0,0-1.54-.75c-4.71-1.6-14.16-2.78-14.16-2.78s-9.79,7.49-10.7,8.79-.1,16.74-1.6,18.64-10.42,11.63-10.42,11.63l2.7,3.51s-3.3,5.11-2.7,6,2.5,2.5,2.1,4.91a6.46,6.46,0,0,1-1.11,2.82h.11C1120.81,387.07,1106,380.15,1106,380.15Z"/><path class="cls-31" d="M1205.3,251.93s-21.85-4.81,12.22-5.62,45.45,27,45.45,27a50.74,50.74,0,0,0-24.5-30.06c-19.69-10.37-31.27-10.52-31.27-10.52l1.2,3.15s-25.25-7.82-42.84-9.62-20.74-6.16-20.74-6.16-2,10.67.3,12.78c0,0-16.84-4.82-30.82,10.52l6,4.81-3.54.75a16.72,16.72,0,0,0,7.75,9l-19.24,3.61c10.86,4,30.06,4.77,46.89,4.5,1.57-1.71,2.72-2.95,3.14-3.38,0,0,20.52-.72,29.54,1.68-12.83-5.61-28.66-7.61-28.66-7.61Z"/></g><g id="body"><path class="cls-27" d="M1146.57,446.75s1.4,25.55,9.82,25.55,76-30,76-30V755.82h-189S1082.23,437.93,1146.57,446.75Z"/><path class="cls-32" d="M1169.32,477.72s-13.83,6.91-19.39,1-8.72-20.6-8.72-20.6,4,37.49,27.36,23C1191.43,467,1169.32,477.72,1169.32,477.72Z"/><path class="cls-33" d="M1102.87,546.26c18.65-37.88,32.58-71.63,32.58-71.63s-4.61-9.44-4.41-13.35c.16-3.24,11.73-9.35,15.76-11.71-.17-1.72-.23-2.82-.23-2.82-64.34-8.82-103.22,309.07-103.22,309.07h48.7S1084.23,584.15,1102.87,546.26Z"/><path class="cls-34" d="M1162.1,450.66s6.62,37.58,2.41,60.73-32.77,95-39.09,139.8,9.52,85.69,12.43,87.79,70.65,10.22,82.58,10.22h90.2s32.16-21.94,34.87-25,.23-176.48-25-239.92c-4.77-12-73.36-33.67-73.36-33.67s-17.44-37.66-18.79-39.58-7.71-3.86-7.71-3.86,2.18,7.77,2.86,9.46C1223.55,416.68,1222.73,423.4,1162.1,450.66Z"/><path class="cls-34" d="M1143.44,419.16s3.83,22,3.13,27.59a59.38,59.38,0,0,1-18.54,9.42l5.51,13.33s-6,15.63-7.82,21.14-25.85,53.32-28.06,64.74-13,89-19.84,113.65-17.44,86.79-17.44,86.79H967s58.53-159,65.74-181,21.6-85.39,32.42-96.66,46.6-32.77,46.6-32.77,8.27-18.9,10.23-19.75S1143.44,419.16,1143.44,419.16Z"/><path class="cls-35" d="M1212.11,462c15.84-4.81,35.08-11.32,35.08-11.32s-17.44-37.66-18.79-39.58-7.71-3.86-7.71-3.86,2.18,7.77,2.86,9.46c0,0-.82,6.72-61.45,34a291.94,291.94,0,0,1,3.73,36.78h0S1196.28,466.79,1212.11,462Z"/><path class="cls-36" d="M1143.44,419.16s-19.52,5.64-21.47,6.49c-1.06,9.87,5.41,30,6.06,30.52a59.38,59.38,0,0,0,18.54-9.42C1147.27,441.14,1143.44,419.16,1143.44,419.16Z"/><path class="cls-35" d="M1156.94,697.21l-24.23,2.59-.07,1.9c-1.33,6.2-1.6,13.88-1.39,21.32,2.79,9.32,5.55,15.2,6.6,16,1.28.93,15.09,3,31.19,5.07h0C1158,726.46,1156.94,697.21,1156.94,697.21Z"/><path class="cls-37" d="M1015.69,755.82s28.86-106.43,34.87-140.1a402.3,402.3,0,0,0,6.26-60.14S1037,638,1013,677.05s-46,78.77-46,78.77Z"/><path class="cls-38" d="M1132.64,701.7s-33-35.77-37.57-37.88-41-9.12-43.31-8.52-17.63,19.24-18.24,21.25-1.2,21.24,0,21.14a5.44,5.44,0,0,0,4.51-2.1l1.71,1.3s-.53,2.14-.23,2.52,10.9,11.8,12,11.24a6.33,6.33,0,0,0,1.13-8.91s4.13-2,4.19-3.8c0,0,15.09,6,16.69,7.37s35.68,27.86,41.19,29.66,21.79,2,21.79,2A104.69,104.69,0,0,1,1132.64,701.7Z"/><path class="cls-39" d="M1266.73,677.85c0-.15-3-4.16-2.51-4.61a17.12,17.12,0,0,1,2.11-1.4s-2.51-45.3-6.51-62.74-14.44-69.75-14.44-69.75,10,80-1,86.79-46.9,17.24-46.7,18.24,20.85,23.85,21,27.06-93.42,22.3-93.49,22.32h0c4.36,4.65,7.4,7.94,7.4,7.94l.07-1.9,127.11-13.58s-.46-2.86,0-3.16S1266.68,678,1266.73,677.85Z"/><path class="cls-40" d="M1171.42,495.15s4.51,19.85-15,69.76-29.46,92.9-24.35,129c0,0-1.51-43.89,10.82-81.77S1178.34,527,1171.42,495.15Z"/><path class="cls-41" d="M1309.72,478.92s-54.11.9-62.53,38.78-50.81,15-58.33,39.39-49.61,98-47.65,82.08,29.31-91.4,34.42-120.26-3.61-25.26-1.2-28.87,24.26-21.34,43.55-27.66,29.21-11.72,29.21-11.72S1303.11,471.7,1309.72,478.92Z"/><path class="cls-42" d="M1111.74,445.4s-35.77,21.49-46.6,32.77c-3.49,3.64-7.35,12.7-11.23,24,2.53,31.17,2.91,83.14,2.91,83.14s11.78-74.56,20.2-79.07c6.94-3.72,23.63,25.9,38.81,6,4.29-9.14,8-17,9.41-20.34l-13.5-46.5Z"/><path class="cls-35" d="M1122,425.65c-2,.85-10.23,19.75-10.23,19.75s-.66,29.56,13.5,46.5c.22-.53.39-1,.48-1.26,1.81-5.51,7.82-21.14,7.82-21.14L1128,456.17C1127.38,455.62,1120.91,435.52,1122,425.65Z"/><path class="cls-43" d="M1104.88,521.51s-11.83,29.06-13,42.89-16.64,92.93-16.64,90.86,13.63-75.62,14.84-92.46S1104.88,521.51,1104.88,521.51Z"/><path class="cls-44" d="M1053,682.86c-.61,0-7.17,5.77-11.41,9.53h0s7.43-19,9.46-19.24,13.45,2.78,13.45,2.78-12.48-4.28-14.35-3.76S1038,695.59,1038,695.59l1.71,1.3s11.32-11.67,13.28-11.72,15,.75,15,.75S1053.92,682.81,1053,682.86Z"/><path class="cls-45" d="M1220.69,407.22s2.18,7.77,2.86,9.46C1223.55,416.68,1229.07,409.84,1220.69,407.22Z"/></g></g><path class="cls-46" d="M779,614.9,876.79,739h180.68L957.9,612.67a8.64,8.64,0,0,0-6.79-3.29H781.66A3.41,3.41,0,0,0,779,614.9Z"/><path class="cls-47" d="M870.92,739H1208.8a9.53,9.53,0,0,1,9.53,9.53v.62a0,0,0,0,1,0,0H870.92a0,0,0,0,1,0,0V739A0,0,0,0,1,870.92,739Z"/><rect class="cls-48" x="870.92" y="739.04" width="180.7" height="10.14"/><path class="cls-49" d="M772.93,614.65l98,124.39h180.68L951.34,611.76a6.28,6.28,0,0,0-4.92-2.38H775.49A3.26,3.26,0,0,0,772.93,614.65Z"/><polygon class="cls-50" points="870.94 739.04 1051.62 739.04 870.92 743.82 870.94 739.04"/><path class="cls-9" d="M908.57,668.32a13.42,13.42,0,0,0-8.59-.88c4.38,2.67,6.77,6.68,5.46,9.66-1.14,2.63-4.81,3.7-9,3a14.08,14.08,0,0,0,5.32,3.95c5.78,2.53,12,1.06,13.9-3.28S914.36,670.84,908.57,668.32Z"/><polygon class="cls-51" points="917.86 739.04 969.82 635.22 1051.62 739.04 917.86 739.04"/><path class="cls-52" d="M952.8,613.62l-1.46-1.86a6.28,6.28,0,0,0-4.92-2.38H877.51L870.94,739H896.4l56.4-125.42Z"/><g id="books"><path class="cls-53" d="M1306.12,745.3h98.59q5.4-5.16,10.51-10.66h-109.1Z"/><path class="cls-54" d="M1320.44,735.57a2.31,2.31,0,0,0,0-4.61h-82.13a9,9,0,0,0-6.36,2.65h0a9,9,0,0,0,6.37,15.36h82.13a2.31,2.31,0,0,0,0-4.61h-3.76a14.15,14.15,0,0,1-1.81-1.57,4.9,4.9,0,0,1-1.7-3.64,5.6,5.6,0,0,1,2.17-3.59Z"/><path class="cls-12" d="M1313,733.61h0a9,9,0,0,0,6.36,15.36h81.41q2.48-2.26,4.89-4.61h-86.3a4.4,4.4,0,0,1-3.11-7.51,4.43,4.43,0,0,1,3.11-1.29h95c1.42-1.52,2.83-3.05,4.22-4.61h-99.2A9,9,0,0,0,1313,733.61Z"/><rect class="cls-53" x="1242.81" y="713.57" width="97.48" height="12.94"/><path class="cls-55" d="M1323.24,714.69a2.79,2.79,0,1,1,0-5.58h75.69a10.88,10.88,0,0,1,7.71,3.2h0a10.93,10.93,0,0,1-7.72,18.64h-75.69a2.8,2.8,0,1,1,0-5.59h4.56a18.06,18.06,0,0,0,2.2-1.9c1.28-1.34,2.2-2.87,2-4.41a6.81,6.81,0,0,0-2.63-4.37Z"/><path class="cls-56" d="M1242.81,714.69a2.79,2.79,0,1,1,0-5.58h81.4a10.88,10.88,0,0,1,7.71,3.2h0a10.93,10.93,0,0,1-7.72,18.64h-81.4a2.8,2.8,0,0,1,0-5.59h81.4a5.34,5.34,0,0,0,0-10.68Z"/><rect class="cls-53" x="1315.3" y="691.3" width="63.26" height="13.24"/><path class="cls-57" d="M1333.08,692.46a2.86,2.86,0,1,0,0-5.72h-46.63a11.15,11.15,0,0,0-7.89,3.28h0a11.18,11.18,0,0,0,7.91,19.07h46.63a2.86,2.86,0,1,0,0-5.72h-4.67a18,18,0,0,1-2.25-2c-1.31-1.36-2.25-2.93-2.1-4.51a6.92,6.92,0,0,1,2.69-4.46Z"/><path class="cls-58" d="M1378.55,692.46a2.86,2.86,0,1,0,0-5.72h-46.79a11.18,11.18,0,0,0-7.9,3.28h0a11.18,11.18,0,0,0,7.91,19.07h46.79a2.86,2.86,0,1,0,0-5.72h-46.79a5.46,5.46,0,1,1,0-10.92Z"/></g><g id="elements"><path class="cls-59" d="M739.07,517.7a15,15,0,0,1,10.63-4.4,14.86,14.86,0,0,1,5.75,1.14,15,15,0,0,1,8.15,8.15,15.07,15.07,0,0,1,0,11.5,15,15,0,0,1-8.15,8.14,14.86,14.86,0,0,1-5.75,1.15,15,15,0,0,1-13.89-9.29,15.06,15.06,0,0,1,3.26-16.39Zm5.41-2a13.72,13.72,0,0,0-7.39,7.4,13.74,13.74,0,0,0,0,10.44,13.65,13.65,0,0,0,7.39,7.39,13.65,13.65,0,0,0,14.87-3,13.66,13.66,0,0,0-14.87-22.27Zm-1.66-11.06a22.83,22.83,0,0,0-2.77,1,24.38,24.38,0,0,0-2.66,1.32,24.85,24.85,0,0,0-2.51,1.67,23.79,23.79,0,0,0-2.29,1.95,1.55,1.55,0,0,1-.9.43,1.6,1.6,0,0,1-1-.2c-2.21-1.28-4.53-2.54-6.7-3.87a1.19,1.19,0,0,0-.32-.1,1.14,1.14,0,0,0-.37,0,1.09,1.09,0,0,0-.34.17.83.83,0,0,0-.24.28c-1.61,2.43-3.23,5.58-4.72,8.16a1.12,1.12,0,0,0-.12.35,1.25,1.25,0,0,0,0,.38.91.91,0,0,0,.17.34.9.9,0,0,0,.27.24c2,1.31,4.55,2.63,6.66,3.84a1.59,1.59,0,0,1,.76,1.08l.14,0-.16.62c-.12.49-.22,1-.31,1.47s-.17,1-.23,1.48-.11,1-.13,1.49-.05,1-.05,1.52,0,1,.05,1.51.07,1,.13,1.5.14,1,.23,1.48.19,1,.31,1.46a1.54,1.54,0,0,1-.1,1,1.59,1.59,0,0,1-.71.74l-5.89,3.4h0l-.7.41a.78.78,0,0,0-.27.24.84.84,0,0,0-.17.34,1.2,1.2,0,0,0,0,.38,1.06,1.06,0,0,0,.12.34l4.36,7.56h0l.36.61a.94.94,0,0,0,.24.28,1.06,1.06,0,0,0,.34.16.81.81,0,0,0,.38,0,.73.73,0,0,0,.34-.12c2.11-1.32,4.49-2.59,6.67-3.84a1.54,1.54,0,0,1,1-.2,1.57,1.57,0,0,1,.91.42h0a23.89,23.89,0,0,0,2.29,2,24.9,24.9,0,0,0,5.19,3,26.13,26.13,0,0,0,2.82,1,1.57,1.57,0,0,1,1.14,1.51v7.69a.86.86,0,0,0,.08.36.81.81,0,0,0,.21.31.85.85,0,0,0,.31.21.83.83,0,0,0,.36.07h9.43a.86.86,0,0,0,.36-.07,1,1,0,0,0,.52-.52.86.86,0,0,0,.07-.36v-7.69a1.59,1.59,0,0,1,.34-1,1.57,1.57,0,0,1,.88-.56,23.45,23.45,0,0,0,2.77-1A24.44,24.44,0,0,0,762,549.7a25.93,25.93,0,0,0,2.51-1.66,25.18,25.18,0,0,0,2.29-2,1.6,1.6,0,0,1,.95-.43,1.66,1.66,0,0,1,1,.25l6.58,3.8a.77.77,0,0,0,.35.12.83.83,0,0,0,.38,0,1.06,1.06,0,0,0,.34-.16.94.94,0,0,0,.24-.28c1.56-2.73,3.15-5.44,4.72-8.17a.85.85,0,0,0,.11-.34,1,1,0,0,0,0-.38,1,1,0,0,0-.17-.34.78.78,0,0,0-.27-.24L774.38,536a1.57,1.57,0,0,1-.66-.74,1.34,1.34,0,0,1-.09-.26l-.17,0,.17-.71c.13-.49.23-1,.32-1.46s.16-1,.23-1.48.1-1,.13-1.5.05-1,.05-1.51,0-1-.05-1.51-.07-1-.13-1.5-.14-1-.23-1.49-.19-1-.32-1.46a1.67,1.67,0,0,1,.1-1,1.62,1.62,0,0,1,.71-.73l6.6-3.81a.78.78,0,0,0,.27-.24,1.09,1.09,0,0,0,.17-.34,1,1,0,0,0,0-.38.89.89,0,0,0-.11-.35c-1.61-2.39-3.23-5.59-4.72-8.16a.83.83,0,0,0-.24-.28,1.09,1.09,0,0,0-.34-.17,1.25,1.25,0,0,0-.38,0,1.12,1.12,0,0,0-.35.12l-6.66,3.85a1.63,1.63,0,0,1-1,.2,1.58,1.58,0,0,1-.9-.45,27.83,27.83,0,0,0-2.28-1.94A25.2,25.2,0,0,0,762,507a24.74,24.74,0,0,0-2.68-1.33,24.14,24.14,0,0,0-2.82-1,1.56,1.56,0,0,1-1.14-1.52v-7.69a.93.93,0,0,0-.28-.67,1,1,0,0,0-.31-.21,1,1,0,0,0-.36-.07H745a1,1,0,0,0-.36.07,1,1,0,0,0-.32.21,1,1,0,0,0-.28.67v7.69a1.54,1.54,0,0,1-.34,1,1.59,1.59,0,0,1-.87.56Zm-3.32-.29a26.32,26.32,0,0,0-7.88,5.22.16.16,0,0,1-.1.05.25.25,0,0,1-.12,0l-6.72-3.88a2.3,2.3,0,0,0-.84-.27,2.37,2.37,0,0,0-.88.07,2.41,2.41,0,0,0-.82.4,2.26,2.26,0,0,0-.61.69c-1.62,2.63-3.16,5.48-4.71,8.16a2.19,2.19,0,0,0-.29.87,2.38,2.38,0,0,0,.06.92,2.41,2.41,0,0,0,.4.82,2.11,2.11,0,0,0,.69.6c2.14,1.33,4.46,2.58,6.65,3.85a.15.15,0,0,1,.08.08.17.17,0,0,1,0,.12l-.15.62h0c-.07.3-.13.6-.19.92-.1.53-.18,1-.24,1.57s-.11,1-.14,1.57-.05,1.08-.05,1.6,0,1,.05,1.59.08,1.07.14,1.58.14,1,.24,1.57.21,1,.33,1.54a.16.16,0,0,1,0,.12.18.18,0,0,1-.08.09c-2.45,1.31-4.93,2.85-7.35,4.25l.09.1-.08.09a2.37,2.37,0,0,0-.4.83,2.31,2.31,0,0,0-.06.91,2.14,2.14,0,0,0,.29.87l5.07,8.78.09-.06.16.13a2.43,2.43,0,0,0,.82.41,2.31,2.31,0,0,0,.91.06,2.43,2.43,0,0,0,.85-.28c2.21-1.18,4.5-2.6,6.69-3.86a.14.14,0,0,1,.11,0,.16.16,0,0,1,.11.05,27.85,27.85,0,0,0,2.41,2.06,26.38,26.38,0,0,0,2.65,1.75,26.71,26.71,0,0,0,2.83,1.42,25.82,25.82,0,0,0,3,1,.22.22,0,0,1,.09.07.17.17,0,0,1,0,.11v7.69a2.26,2.26,0,0,0,.18.9,2.37,2.37,0,0,0,1.27,1.27,2.45,2.45,0,0,0,.9.18h9.43a2.4,2.4,0,0,0,.89-.18,2.52,2.52,0,0,0,.77-.51,2.6,2.6,0,0,0,.51-.76,2.45,2.45,0,0,0,.18-.9v-7.69a.2.2,0,0,1,0-.11.21.21,0,0,1,.11-.07h0a25.9,25.9,0,0,0,3-1.05,24.72,24.72,0,0,0,2.82-1.41,26.24,26.24,0,0,0,2.64-1.75,26.56,26.56,0,0,0,2.42-2.06.17.17,0,0,1,.11-.06l.12,0,6.66,3.85a2.5,2.5,0,0,0,.86.29,2.38,2.38,0,0,0,.92-.06,2.43,2.43,0,0,0,.82-.41,2.35,2.35,0,0,0,.59-.66c1.75-2.82,3.4-5.9,5.07-8.78l-.09-.06a1.7,1.7,0,0,0,0-.22,2.31,2.31,0,0,0-.06-.91,2.39,2.39,0,0,0-.41-.83,2.47,2.47,0,0,0-.68-.6l-6.66-3.84a.16.16,0,0,1-.07-.09.17.17,0,0,1,0-.12l.17-.7h0c.06-.28.11-.56.17-.84.09-.53.17-1.06.24-1.57s.11-1,.14-1.58,0-1.08,0-1.59,0-1.05,0-1.59-.08-1.07-.14-1.59-.15-1-.24-1.57-.21-1-.34-1.54a.17.17,0,0,1,0-.12.14.14,0,0,1,.08-.09l6.65-3.84a2.23,2.23,0,0,0,.69-.6,2.41,2.41,0,0,0,.4-.82,2.33,2.33,0,0,0,.06-.91,2.37,2.37,0,0,0-.28-.85c-1.59-2.94-3.4-5.9-5.08-8.8l-.09.05-.16-.13a2.41,2.41,0,0,0-.82-.4,2.38,2.38,0,0,0-.92-.06,2.23,2.23,0,0,0-.86.28l-.49.29h0L768,509.62a.16.16,0,0,1-.12,0,.16.16,0,0,1-.1-.05l0,0a25,25,0,0,0-2.41-2.05,25.54,25.54,0,0,0-2.63-1.75,25.87,25.87,0,0,0-2.84-1.41,25.07,25.07,0,0,0-3-1.06.17.17,0,0,1-.1-.07.14.14,0,0,1,0-.11v-7.69a2.44,2.44,0,0,0-.18-.89,2.24,2.24,0,0,0-.52-.76,2.34,2.34,0,0,0-1.65-.69H745a2.26,2.26,0,0,0-.9.18,2.42,2.42,0,0,0-.76.51,2.3,2.3,0,0,0-.69,1.65v7.69a.16.16,0,0,1,0,.12.17.17,0,0,1-.1.06h0A26.1,26.1,0,0,0,739.5,504.37Z"/><path class="cls-60" d="M768.55,574Zm2.6-9.9a5,5,0,1,1-1.46,3.54,5,5,0,0,1,1.46-3.54Zm1.09-5a8.85,8.85,0,0,0-2,.84,9,9,0,0,0-1.72,1.3.3.3,0,0,1-.36,0L765.86,560h0a.59.59,0,0,0-.43-.05.58.58,0,0,0-.35.27v0L763.43,563a.57.57,0,0,0-.06.44.58.58,0,0,0,.27.35h0l2.31,1.33a.32.32,0,0,1,.15.34h0a9,9,0,0,0-.2,1.06,9.66,9.66,0,0,0,0,2.15,9,9,0,0,0,.2,1.06.32.32,0,0,1-.17.35l-2.3,1.33h0a.58.58,0,0,0-.27.35.57.57,0,0,0,.06.44l1.64,2.85h0a.58.58,0,0,0,.35.27.57.57,0,0,0,.44-.06h0l2.31-1.33a.3.3,0,0,1,.36,0,9,9,0,0,0,1.72,1.3,8.67,8.67,0,0,0,2,.84.31.31,0,0,1,.22.3v2.68a.58.58,0,0,0,.58.58h3.29a.58.58,0,0,0,.58-.58v-2.68a.3.3,0,0,1,.23-.3,9,9,0,0,0,3.69-2.14.3.3,0,0,1,.38,0l2.31,1.33a.57.57,0,0,0,.44.06.58.58,0,0,0,.35-.27h0l1.63-2.84h0a.57.57,0,0,0,.06-.44.58.58,0,0,0-.27-.35l-2.32-1.34a.32.32,0,0,1-.15-.34h0a9,9,0,0,0,.2-1.06,9.66,9.66,0,0,0,0-2.15,9,9,0,0,0-.2-1.06.32.32,0,0,1,.16-.35l2.31-1.33a.58.58,0,0,0,.27-.35A.57.57,0,0,0,786,563v0l-1.63-2.83h0a.58.58,0,0,0-.35-.27.57.57,0,0,0-.44.06h0l-2.33,1.34a.3.3,0,0,1-.37-.05,8.69,8.69,0,0,0-1.72-1.29,8.41,8.41,0,0,0-2-.84.3.3,0,0,1-.22-.3v-2.68a.57.57,0,0,0-.17-.4.58.58,0,0,0-.41-.18h-3.29a.58.58,0,0,0-.41.18.57.57,0,0,0-.17.4v2.68A.3.3,0,0,1,772.24,559.14Z"/><rect class="cls-61" x="900.15" y="471.91" width="82.87" height="80.56" rx="6.64"/><path class="cls-35" d="M925.75,496.59a23.12,23.12,0,1,0,32.69,0A23.21,23.21,0,0,0,925.75,496.59Zm32.64,3.33H951a47.3,47.3,0,0,0-2.86-6.94A20.89,20.89,0,0,1,958.39,499.92ZM933.6,511.59a37.56,37.56,0,0,1,1.1-9h14.79a37,37,0,0,1,1.09,9Zm16.89,2.7a43.34,43.34,0,0,1-1.59,9H935.28a44,44,0,0,1-1.58-9Zm-8.4-22.21a20.62,20.62,0,0,1,3.27.26,41.8,41.8,0,0,1,3.35,7.58H935.48a41.8,41.8,0,0,1,3.35-7.58A20.59,20.59,0,0,1,942.09,492.08ZM936,493a47.3,47.3,0,0,0-2.86,6.94H925.8A20.89,20.89,0,0,1,936,493ZM924,502.63h8.44a39.85,39.85,0,0,0-1.18,9h-9.94A20.78,20.78,0,0,1,924,502.63Zm0,20.63a20.86,20.86,0,0,1-2.68-9h10a43.59,43.59,0,0,0,1.41,9Zm1.84,2.7h7.67a54.52,54.52,0,0,0,2.85,7A20.87,20.87,0,0,1,925.8,526Zm16.29,7.84a20.63,20.63,0,0,1-2.73-.18,62.56,62.56,0,0,1-3.23-7.66h11.93a62.56,62.56,0,0,1-3.23,7.66A20.67,20.67,0,0,1,942.09,533.8Zm5.78-.81a54.52,54.52,0,0,0,2.85-7h7.67A20.87,20.87,0,0,1,947.87,533Zm12.36-9.73h-8.71a43.59,43.59,0,0,0,1.41-9h10A20.86,20.86,0,0,1,960.23,523.26Zm2.68-11.67H953a39.85,39.85,0,0,0-1.18-9h8.44A20.78,20.78,0,0,1,962.91,511.59Z"/><rect class="cls-62" x="1277.55" y="380.88" width="123.28" height="35.39" rx="3.01"/><line class="cls-63" x1="1294.34" y1="393.49" x2="1377.04" y2="393.49"/><line class="cls-63" x1="1294.34" y1="401.98" x2="1328.02" y2="401.98"/><polygon class="cls-62" points="1290.98 412.27 1290.98 426.06 1308.32 412.27 1290.98 412.27"/><line class="cls-64" x1="948.16" y1="278.36" x2="948.16" y2="349.51"/><path class="cls-27" d="M1066.89,251.47H924.78a2.31,2.31,0,0,0-2.31,2.32v37.49a2.31,2.31,0,0,0,2.31,2.32h113.79l14.65,11.65V293.6h13.67a2.31,2.31,0,0,0,2.31-2.32V253.79A2.31,2.31,0,0,0,1066.89,251.47Z"/><path class="cls-65" d="M965.65,276.76c5.83,4.26,12.38-2.29,8.12-8.12a1.93,1.93,0,0,0-.35-.35c-5.83-4.22-12.35,2.3-8.12,8.12A1.93,1.93,0,0,0,965.65,276.76Z"/><path class="cls-66" d="M988.32,276.77c5.82,4.23,12.35-2.3,8.11-8.12a1.93,1.93,0,0,0-.35-.35c-5.83-4.25-12.37,2.3-8.11,8.12A1.17,1.17,0,0,0,988.32,276.77Z"/><path class="cls-67" d="M1011,276.77c5.83,4.24,12.37-2.3,8.12-8.12a1.93,1.93,0,0,0-.35-.35c-5.82-4.24-12.36,2.29-8.12,8.12A1.93,1.93,0,0,0,1011,276.77Z"/><rect class="cls-35" x="859.83" y="349.76" width="124.28" height="50.11" rx="7.83"/><line class="cls-68" x1="869.89" y1="364.9" x2="974.05" y2="364.9"/><line class="cls-68" x1="869.89" y1="371.51" x2="974.05" y2="371.51"/><line class="cls-68" x1="869.89" y1="378.13" x2="974.05" y2="378.13"/><line class="cls-68" x1="869.89" y1="384.74" x2="974.05" y2="384.74"/><polygon class="cls-69" points="769.69 295.4 788.14 308.11 813.42 282.23 813.42 242.19 769.69 242.19 769.69 295.4"/><polygon class="cls-69" points="725.96 282.23 751.24 308.11 769.69 295.4 769.69 242.19 725.96 242.19 725.96 282.23"/><polygon class="cls-70" points="769.69 194.18 705.35 261.14 705.35 339.7 834.03 339.7 834.03 261.14 769.69 194.18"/><polyline class="cls-70" points="834.03 339.7 769.69 295.4 705.35 339.7"/><line class="cls-70" x1="834.03" y1="261.14" x2="788.14" y2="308.11"/><line class="cls-70" x1="705.35" y1="261.14" x2="751.24" y2="308.11"/><line class="cls-68" x1="736.13" y1="253.76" x2="803.24" y2="253.76"/><line class="cls-68" x1="736.13" y1="263.03" x2="803.24" y2="263.03"/><line class="cls-68" x1="736.13" y1="272.3" x2="803.24" y2="272.3"/><line class="cls-68" x1="736.13" y1="281.57" x2="803.24" y2="281.57"/></g><path class="cls-71" d="M-6.83,440.13S308.26,871.9,1029.82,871.9,1775.44,184,1775.44,184V951.28H-6.83Z"/><path class="cls-72" d="M-23.66,550.91s312.93,380.15,981.32,333c724-51,668.65-634.8,668.65-634.8V951.28h-1650Z"/><path class="cls-73" d="M91.79,543.42V951.28H575.24V808C342.49,738.33,183.93,625.72,91.79,543.42Z"/></g></g></g></svg>